<svg width="16" height="16" viewBox="0 0 16 16" fill="none" xmlns="http://www.w3.org/2000/svg">
<rect width="16" height="16" fill="#464EB8"/>
<path d="M2.99756 5.6084V7H2.52881V3.44531H3.83984C4.22884 3.44531 4.5332 3.5446 4.75293 3.74316C4.97428 3.94173 5.08496 4.20459 5.08496 4.53174C5.08496 4.87679 4.97673 5.1429 4.76025 5.33008C4.54541 5.51562 4.23698 5.6084 3.83496 5.6084H2.99756ZM2.99756 5.2251H3.83984C4.09049 5.2251 4.28255 5.1665 4.41602 5.04932C4.54948 4.9305 4.61621 4.7596 4.61621 4.53662C4.61621 4.32503 4.54948 4.15576 4.41602 4.02881C4.28255 3.90186 4.09945 3.83594 3.8667 3.83105H2.99756V5.2251ZM5.68311 7V3.44531H6.84521C7.23096 3.44531 7.52067 3.52507 7.71436 3.68457C7.90967 3.84408 8.00732 4.08008 8.00732 4.39258C8.00732 4.55859 7.96012 4.70589 7.86572 4.83447C7.77132 4.96143 7.64274 5.0599 7.47998 5.12988C7.67204 5.18359 7.8234 5.28613 7.93408 5.4375C8.04639 5.58724 8.10254 5.76628 8.10254 5.97461C8.10254 6.29362 7.99919 6.54427 7.79248 6.72656C7.58577 6.90885 7.29362 7 6.91602 7H5.68311ZM6.15186 5.3374V6.6167H6.92578C7.14388 6.6167 7.31559 6.56055 7.44092 6.44824C7.56787 6.33431 7.63135 6.17806 7.63135 5.97949C7.63135 5.55143 7.3986 5.3374 6.93311 5.3374H6.15186ZM6.15186 4.96143H6.85986C7.06494 4.96143 7.22852 4.91016 7.35059 4.80762C7.47428 4.70508 7.53613 4.56592 7.53613 4.39014C7.53613 4.19482 7.47917 4.05322 7.36523 3.96533C7.2513 3.87581 7.07796 3.83105 6.84521 3.83105H6.15186V4.96143ZM9.26953 6.6167H10.9541V7H8.79834V3.44531H9.26953V6.6167ZM13.2783 5.80615H13.7715V6.1748H13.2783V7H12.8242V6.1748H11.2056V5.90869L12.7974 3.44531H13.2783V5.80615ZM11.7183 5.80615H12.8242V4.06299L12.7705 4.16064L11.7183 5.80615ZM3.65918 13V9.44531H4.6626C4.97184 9.44531 5.24528 9.51367 5.48291 9.65039C5.72054 9.78711 5.90365 9.98161 6.03223 10.2339C6.16243 10.4862 6.22835 10.7759 6.22998 11.103V11.3301C6.22998 11.6654 6.16488 11.9591 6.03467 12.2114C5.90609 12.4637 5.72135 12.6574 5.48047 12.7925C5.24121 12.9276 4.96208 12.9967 4.64307 13H3.65918ZM4.12793 9.83105V12.6167H4.62109C4.98242 12.6167 5.26318 12.5044 5.46338 12.2798C5.6652 12.0552 5.76611 11.7354 5.76611 11.3203V11.1128C5.76611 10.7091 5.6709 10.3958 5.48047 10.1729C5.29167 9.94824 5.02311 9.83431 4.6748 9.83105H4.12793ZM9.44287 9.44531V11.8623C9.44124 12.1976 9.33545 12.4718 9.12549 12.6851C8.91715 12.8983 8.63395 13.0179 8.27588 13.0439L8.15137 13.0488C7.76237 13.0488 7.45231 12.9438 7.22119 12.7339C6.99007 12.5239 6.87288 12.235 6.86963 11.8672V9.44531H7.3335V11.8525C7.3335 12.1097 7.4043 12.3099 7.5459 12.4531C7.6875 12.5947 7.88932 12.6655 8.15137 12.6655C8.41667 12.6655 8.6193 12.5947 8.75928 12.4531C8.90088 12.3115 8.97168 12.1121 8.97168 11.855V9.44531H9.44287ZM12.6387 9.83105H11.4961V13H11.0298V9.83105H9.88965V9.44531H12.6387V9.83105Z" fill="white"/>
</svg>
